<svg id="Capa_1" data-name="Capa 1" xmlns="http://www.w3.org/2000/svg" viewBox="0 0 17.25 17.73"><defs><style>.cls-1{fill:#e3f86f;}.cls-2{fill:none;stroke:#1b2b6b;stroke-miterlimit:10;stroke-width:0.39px;}</style></defs><path class="cls-1" d="M16.46,8.55h0a.33.33,0,0,1,0,.65h0A8.79,8.79,0,0,0,8.9,16.76h0a.33.33,0,0,1-.65,0h0A8.81,8.81,0,0,0,.69,9.2h0a.33.33,0,0,1,0-.65h0A8.81,8.81,0,0,0,8.25,1h0A.33.33,0,0,1,8.9,1h0A8.79,8.79,0,0,0,16.46,8.55Z"/><path class="cls-2" d="M16.46,8.55h0a.33.33,0,0,1,0,.65h0A8.79,8.79,0,0,0,8.9,16.76h0a.33.33,0,0,1-.65,0h0A8.81,8.81,0,0,0,.69,9.2h0a.33.33,0,0,1,0-.65h0A8.81,8.81,0,0,0,8.25,1h0A.33.33,0,0,1,8.9,1h0A8.79,8.79,0,0,0,16.46,8.55Z"/></svg>